<?xml version="1.0" encoding="utf-8"?>
<!-- Generator: Adobe Illustrator 27.0.0, SVG Export Plug-In . SVG Version: 6.00 Build 0)  -->
<svg version="1.1" id="Слой_1" xmlns="http://www.w3.org/2000/svg" xmlns:xlink="http://www.w3.org/1999/xlink" x="0px" y="0px"
	 viewBox="0 0 900 726" style="enable-background:new 0 0 900 726;" xml:space="preserve">
<g>
	<path d="M563.5,388.9c0-18.7,0-37.4,0-56.1c0-19.5,0-39,0-58.5c0-19,0-38,0-57c0-19.5,0-39,0-58.5c0-19,0-38,0-57
		c0-14.5,0.1-29,0-43.5c0-5.3-3.2-8.5-8.4-8.5c-13.7-0.1-27.4,0-41.1,0c-5.8,0-11.6,0-17.6,0c0-2.6,0.1-4.9,0-7.2
		c-0.2-4.7-2.9-7.4-7.2-7.4c-4.2,0-7.3,3.2-7.4,7.7c-0.1,2.2,0,4.4,0,6.7c-19.9,0-39.7,0-59.6,0c0-2.7,0.1-5.1,0-7.5
		c-0.1-4.3-3.2-7-7.6-7c-4,0.1-6.8,2.9-6.8,7.2c0,2.4,0,4.8,0,7.3c-20,0-39.8,0-59.8,0c0-2.6,0.2-5.1-0.1-7.4
		c-0.5-4.8-3.1-7.2-7.5-7.1c-4,0.1-7,3.2-7.2,7.7c-0.1,2.2,0,4.4,0,6.8c-1.5,0.1-2.6,0.2-3.7,0.2c-18.1,0-36.2,0-54.3,0
		c-6,0-8.8,2.9-8.8,9.1c0,39.3,0,78.7,0,118c0,108.1,0,216.2,0,324.4c0,6,2.6,8.9,8.3,8.9c36.2,0,72.4,0,108.6,0
		c41.6,0,83.2,0,124.8,0c15.7,0,31.5,0,47.2,0c2.6,0,5.4-0.4,6.4-2.9c1.1-2.7,1.7-5.9,1.7-8.8c0.2-14.3,0.1-28.6,0.1-42.9
		C563.5,433.3,563.5,411.1,563.5,388.9z M548.5,495.3c-88.9,0-178,0-267.1,0c0-143.5,0-286.9,0-430.5c17.3,0,34.4,0,51.8,0
		c0,6.9-0.1,13.7,0.1,20.5c0.1,2,0.6,4.2,1.6,5.9c1.7,2.8,5.3,3.7,8.2,2.8c2.8-1,4.9-4.1,5-7.5c0.1-6.5,0-13,0.1-19.5
		c0-0.7,0.1-1.4,0.1-2.1c19.9,0,39.5,0,59.6,0c0,7.2,0,14.3,0,21.4c0,5.1,2.6,7.9,7.2,7.9c4.5-0.1,7.3-3,7.3-7.9c0-7,0-14,0-21.3
		c19.8,0,39.5,0,59.6,0c0,3.1,0,6.3,0,9.4c0,4.1-0.1,8.2,0,12.3c0.1,4.3,3.2,7.5,7.3,7.5c4.3,0,7.2-2.7,7.3-7.3
		c0.1-6.3,0-12.6,0.1-19c0-1,0.1-2,0.1-3.1c17.4,0,34.5,0,51.9,0C548.5,208.3,548.5,351.7,548.5,495.3z"/>
	<path d="M637.8,158c0.1-15.8-14.3-28.7-30.1-26c-12.1,2-21.7,12.8-21.7,25.1c0,36.3,0,72.6,0,108.9c0,32,0,64,0,96
		c0,8.7,0.1,17.3,1.7,25.9c2.2,11.2,3.7,22.5,5.6,33.7c0.8,4.6,3.7,7.1,8.5,7.2c6.6,0.1,13.2,0.1,19.9,0c5.7-0.1,8.1-2.6,9-8.2
		c1.4-9.1,3.2-18.2,4.6-27.3c1.2-7.9,2.7-15.8,2.7-24C637.7,298.8,637.7,228.4,637.8,158z M620.1,394.5c-0.9,5.7-1.9,11.4-2.8,17
		c-0.2,1.6-0.8,2.2-2.5,2.3c-7.6,0.2-7.6,0.3-9-7.3c-1.2-6.5-2.3-13.1-3.5-19.6c-0.1-0.8,0-1.6,0-2.8c6.5,0,12.6,0,19.4,0
		C621.1,387.7,620.6,391.2,620.1,394.5z M623.1,369.1c-7.6,0-14.9,0-22.5,0c0-59.3,0-118.4,0-177.8c7.4,0,14.8,0,22.5,0
		C623.1,250.5,623.1,309.6,623.1,369.1z M623.2,176c-7.7,0-15.1,0-22.5,0c0-6.8-0.6-13.5,0.2-20.1c0.8-6.9,5.5-9.8,12.6-9.3
		c5.1,0.4,9.4,5.1,9.7,11.1C623.4,163.6,623.2,169.6,623.2,176z"/>
	<path d="M303.7,369.2c0-12.2,0-24.3,0-36.4c0-5.2,2.9-8.2,8.1-8.2c24.3-0.1,48.5-0.1,72.8,0c4.9,0,8.1,3.3,8.1,8.4
		c0,22.7,0,45.5,0,68.2c0,2.3,0,4.6-0.5,6.8c-0.9,3.9-3.4,5.7-7.3,5.7c-24.6,0-49.1,0-73.7,0c-4.5,0-7.5-3.2-7.5-7.8
		C303.7,393.7,303.7,381.5,303.7,369.2z M318.3,339.6c-0.1,0.9-0.1,1.4-0.1,1.9c0,18.4,0.1,36.7-0.1,55.1c0,2.4,1,2.8,3,2.8
		c17.9-0.1,35.9-0.1,53.8-0.1c0.8,0,1.7-0.1,2.7-0.2c0-20,0-39.7,0-59.5C357.8,339.6,338.2,339.6,318.3,339.6z"/>
	<path d="M348,309.6c-11.9,0-23.7-0.2-35.5,0.1c-5.7,0.2-8.9-3.7-8.8-9c0.2-23.7,0.2-47.3,0-71c-0.1-5.5,2.8-9.1,9.1-9.1
		c11.6,0.1,23.2,0,34.8,0.1c12.3,0,24.6,0,36.9,0.1c5.4,0.1,8.3,3,8.3,8.4c0.1,24.1,0,48.1,0,72.2c0,5.4-3.9,8.5-8.4,8.4
		C372.2,309.4,360.1,309.6,348,309.6z M377.6,295c0-19.9,0-39.6,0-59.2c-19.9,0-39.6,0-59.2,0c0,19.9,0,39.5,0,59.2
		C338.2,295,357.8,295,377.6,295z"/>
	<path d="M467.1,406.3c-14.4,0-28.8,0-43.2,0c-3,0-5.8-0.5-7.5-3.3c-1.6-2.5-1.8-5.2-0.1-7.9c1.6-2.6,4.2-3.7,7-3.7
		c25.5,0,50.9,0,76.4,0c3.7,0,7.4-0.1,11.1,0c4.8,0.1,8.1,3.1,8.1,7.4c0.1,4.3-3.2,7.5-7.9,7.5C496.3,406.4,481.7,406.4,467.1,406.3
		C467.1,406.4,467.1,406.4,467.1,406.3z"/>
	<path d="M467,302.4c-14.5,0-29.1,0-43.6,0c-6.6,0-10.1-5.5-7.2-11.2c1.6-3.1,4.5-3.7,7.3-3.7c20.8-0.1,41.6,0,62.3,0
		c7.7,0,15.4-0.1,23,0c2.3,0.1,4.8,0.5,6.8,1.6c2.9,1.6,3.7,5.1,2.8,8.1c-1,3.1-3.9,5.1-7.6,5.1C496.3,302.4,481.6,302.4,467,302.4z
		"/>
	<path d="M467.4,183.8c14.5,0,29.1,0,43.6,0c4.8,0,7.8,2.8,7.8,7c-0.1,4.6-3,7.4-7.9,7.4c-25.3,0-50.7,0-76.1,0
		c-4.1,0-8.2,0.1-12.3,0c-3.7-0.1-6.9-2.9-7.4-6.2c-0.5-3.2,1.4-6.6,4.6-7.8c0.9-0.3,1.9-0.4,2.9-0.4
		C437.6,183.8,452.5,183.8,467.4,183.8z"/>
	<path d="M467.1,138.7c-14.9,0-29.7,0-44.5,0c-4.3,0-7.5-2.9-7.6-7c-0.1-4.1,3.3-7.4,7.6-7.4c29.5,0,58.9,0,88.4,0
		c4.7,0,7.6,2.8,7.7,7.3c0.1,4.3-3,7.1-7.8,7.1C496.4,138.7,481.7,138.7,467.1,138.7z"/>
	<path d="M467.1,332.3c14.7,0,29.5,0,44.2,0c3.1,0,5.4,1.3,6.7,4c1.3,2.6,1.3,5.5-0.7,7.5c-1.6,1.5-4,2.9-6.1,2.9
		c-29.5,0.2-59,0.1-88.5,0.1c-4.3,0-7.8-3.5-7.6-7.5c0.1-4.2,3-7,7.6-7C437.5,332.3,452.3,332.3,467.1,332.3z"/>
	<path d="M467.1,228.4c14.7,0,29.5,0,44.2,0c4.6,0,7.3,2.7,7.4,7.1c0.1,4.3-2.8,7.3-7.3,7.3c-29.8,0.1-59.6,0.1-89.3,0
		c-3.9,0-7.2-3.6-7.1-7.3c0.1-4,3.1-7,7.3-7C437.3,228.4,452.2,228.4,467.1,228.4z"/>
	<path d="M441.1,168.7c-5.8,0-11.6,0-17.4,0c-5.2,0-8.7-2.9-8.6-7.4c0.1-4.4,3.6-7.5,8.7-7.5c11.5,0,23-0.1,34.5,0
		c5.1,0,8.5,3,8.5,7.2c0.1,4.3-2.8,7.3-7.5,7.5c-6.1,0.2-12.2,0.1-18.3,0.1C441.1,168.5,441.1,168.6,441.1,168.7z"/>
	<path d="M441.2,272.4c-6.3,0-12.6,0.1-19-0.1c-3.8-0.1-6-1.9-7-5.4c-0.8-2.6,0.2-5.8,2.8-7.6c1.3-0.9,3.1-1.5,4.7-1.5
		c12.2-0.1,24.3-0.1,36.4-0.1c4.3,0,7.6,3.2,7.6,7.2c0.1,4.4-2.6,7.2-7.2,7.3C453.5,272.5,447.3,272.4,441.2,272.4z"/>
	<path d="M440.6,376.4c-6.1,0-12.2,0-18.4,0c-4,0-7.2-3.1-7.2-7c-0.1-4,3.2-7.4,7.3-7.4c12.4,0,24.9-0.1,37.3,0
		c4.3,0,7.2,3.2,7.2,7.5c-0.1,4-3.1,7-7.3,7C453.3,376.4,447,376.4,440.6,376.4z"/>
	<path d="M489.3,168.7c-2.3,0-4.6,0.1-6.9,0c-4.7-0.1-7.8-3.1-7.8-7.2c0-4.4,3.1-7.5,7.8-7.6c4.5-0.1,9-0.1,13.5,0
		c4.7,0.1,8.4,3.1,8.1,7.3c-0.3,5.1-2.7,7.2-7.9,7.5C493.9,168.8,491.6,168.7,489.3,168.7z"/>
	<path d="M489.2,272.4c-2.6,0-5.2,0.1-7.8,0c-4.2-0.2-6.6-2.9-6.7-6.9c-0.1-3.9,2.8-7.4,6.6-7.5c5.3-0.2,10.7-0.2,15.9,0
		c3.7,0.1,7,3.7,7,7.3c-0.1,4-2.8,6.9-6.9,7.2C494.6,272.5,491.9,272.4,489.2,272.4z"/>
	<path d="M489.2,376.4c-2.5,0-5,0.1-7.5,0c-4.2-0.1-7-2.9-7-6.9c-0.1-4.3,2.6-7.4,6.7-7.5c5.3-0.1,10.6-0.1,15.9,0
		c3.7,0.1,6.9,3.7,6.9,7.3c0,3.7-3.3,7-7.1,7C494.4,376.5,491.8,376.4,489.2,376.4z"/>
	<path d="M392.8,125.9c0-5.3-3.1-9.3-8.9-9.1c-11.9,0.4-23.8,0.1-35.8,0.1c-12.2,0-24.3,0-36.4,0c-5.5,0-8,2.5-8,8.1
		c0,24.1,0,48.3,0,72.5c0,5.5,2.5,8,8,8c24.1,0,48.3,0,72.5,0c5.5,0,8.4-2.8,8.5-8.4c0.1-4.3,0-8.6,0-12.9
		C392.8,164.8,392.7,145.3,392.8,125.9z M377.6,190.8c-19.7,0-39.4,0-59.2,0c0-19.6,0-39.3,0-59.2c19.8,0,39.4,0,59.2,0
		C377.6,151.3,377.6,171,377.6,190.8z"/>
</g>
</svg>
