<?xml version="1.0" encoding="utf-8"?>
<!-- Generator: Adobe Illustrator 27.0.0, SVG Export Plug-In . SVG Version: 6.00 Build 0)  -->
<svg version="1.1" id="Слой_1" xmlns="http://www.w3.org/2000/svg" xmlns:xlink="http://www.w3.org/1999/xlink" x="0px" y="0px"
	 viewBox="0 0 900 559" style="enable-background:new 0 0 900 559;" xml:space="preserve">
<g>
	<path d="M588.4,228.7c35.6,0,71.2,0,106.9,0c4.6,0,9.1,0.9,11.9,6.4c1.8,5.5-0.9,13.7-8.2,13.7c-14.6,0-28.3,0-42.9,0
		c-13.7,0-27.4,0-42,0c-10,0-20.1,0-30.1,0c-11,0-22.8,0-33.8,0c-10,0-19.2,0-29.2,0c-11,0-22.8,0-33.8,0c-3.7,0-7.3,0-11,0
		c-4.6-0.9-6.4-4.6-7.3-8.2s1.8-8.2,5.5-10c2.7-0.9,4.6-1.8,7.3-1.8C518.1,228.7,552.8,228.7,588.4,228.7z"/>
	<path d="M688,129.1c0,7.3-4.6,11-11.9,10c-8.2,0-16.4,0-25.6,0c-6.4,0-13.7,0-20.1,0c-11.9,0-22.8,0-34.7,0c-6.4,0-12.8,0-19.2,0
		c-11.9,0-23.7,0-35.6,0c-5.5,0-11-2.7-11.9-6.4c-0.9-3.7,0.9-9.1,5.5-11c1.8-1.8,4.6-1.8,7.3-1.8c44.8,0,90.4,0,135.2,0
		C683.4,120,688,123.6,688,129.1z"/>
	<path d="M624,170.2c18.3,0,35.6,0,53.9,0c6.4,0,11,3.7,11,9.1c0,6.4-3.7,10-11,11H677c-35.6,0-71.2,0-106.9,0
		c-8.2,0-13.7-7.3-10-14.6c1.8-3.7,3.7-5.5,8.2-5.5C586.6,170.2,604.9,170.2,624,170.2z"/>
	<path d="M737.3,189.4c-6.4,0-12.8,0-19.2,0c-4.6,0-7.3-2.7-9.1-6.4c-1.8-3.7-0.9-7.3,1.8-11c1.8-1.8,4.6-2.7,7.3-2.7
		c13.7,0,26.5,0,40.2,0c6.4,0,10,3.7,10,9.1c0,6.4-3.7,11-10,11C751,190.3,744.6,189.4,737.3,189.4z"/>
	<path d="M744.6,248.8c-5.5,0-11.9,0-17.4,0c-4.6,0-8.2-4.6-9.1-8.2c-0.9-5.5,1.8-11,6.4-11c8.2-0.9,16.4-0.9,24.7,0
		c5.5,0,9.1,6.4,8.2,10c-1.8,5.5-4.6,9.1-11,8.2C746.4,248.8,745.5,248.8,744.6,248.8z"/>
	<path d="M728.2,119.1c4.6,0,9.1,0,12.8,0.9c5.5,0.9,7.3,6.4,7.3,11.9c-0.9,4.6-5.5,7.3-10,7.3c-6.4,0-12.8,0-20.1,0
		c-5.5,0-9.1-3.7-10-8.2c-0.9-4.6,2.7-9.1,7.3-10C719,120,723.6,120,728.2,119.1z"/>
	<path d="M698,302.6c0-7.3,0-15.5,0-22.8c0-6.4-4.6-11-10-11c-5.5,0-9.1,4.6-9.1,11c0,21,0,42.9,0,63.9c0,1.8,0,2.7,0,4.6
		c-4.6,0-9.1,0-12.8,0c-0.9,0-2.7-1.8-2.7-2.7c-2.7-15.5-9.1-27.4-21-37.4c-16.4-13.7-34.7-17.4-54.8-13.7
		c-12.8,2.7-23.7,9.1-32.9,19.2c-9.1,10-13.7,21.9-15.5,34.7c-68.5,0-137,0-206.4,0c0-95.9,0-191.8,0-286.8c116,0,231.1,0,347.1,0
		c0,10,0,20.1,0,31.1c0,1.8,0.9,4.6,1.8,5.5c1.8,3.7,7.3,4.6,10,3.7c3.7-1.8,6.4-4.6,6.4-10c0-12.8,0-25.6,0-38.4
		c0-6.4-3.7-11.9-11.9-11.9c-121.5,0-242,0-363.5,0c-8.2,0-12.8,4.6-12.8,12.8c0.9,6.4,0,7.3-6.4,7.3c-11,0-21.9,0-32.9,0
		c-10,0-20.1,0-30.1,0c-11.9,0-23.7,0-35.6,0c-6.4,0-12.8,0-18.3,0.9c-13.7,2.7-23.7,11-30.1,24.7c-5.5,10-5.5,21.9-4.6,32.9
		c0,6.4,5.5,11,11,10c3.7,0,6.4,0,10,0c0,2.7,0,4.6,0,6.4c0,4.6-0.9,9.1-1.8,13.7c-0.9,9.1-0.9,18.3-1.8,26.5
		c-0.9,12.8-1.8,26.5-3.7,39.3c0,1.8-1.8,3.7-2.7,4.6c-21,7.3-31.1,25.6-31.1,45.7c0,25.6,0,51.1,0,76.7c0,10,3.7,13.7,14.6,13.7
		c5.5,0,11,0,14.6,0c3.7,9.1,6.4,18.3,10,26.5c10,19.2,27.4,30.1,49.3,32.9c13.7,1.8,27.4-0.9,40.2-9.1c17.4-11,27.4-26.5,30.1-46.6
		c0-1.8,0.9-3.7,3.7-3.7c5.5,0,11,0,16.4,0c1.8,6.4,5.5,9.1,11.9,9.1c70.3,0,140.7,0,211,0c1.8,0,3.7,0,5.5,0
		c3.7,12.8,10,25.6,21.9,35.6c14.6,11.9,32,17.4,50.2,13.7c25.6-4.6,42.9-20.1,50.2-45.7c0.9-2.7,1.8-3.7,4.6-3.7c7.3,0,13.7,0,21,0
		c8.2,0.9,12.8-4.6,12.8-12.8C698,338.3,698,320,698,302.6z M172.9,109.9c-0.9-15.5,4.6-24.7,18.3-28.3c0.9,0,1.8-0.9,3.7-0.9
		c37.4,0,75.8,0,113.3,0c0.9,0,1.8,0,2.7,0c0,10,0,19.2,0,29.2C310.8,109.9,172.9,109.9,172.9,109.9z M310.8,130
		c0,29.2,0,59.4,0,88.6c-41.1,0-83.1,0-125.1,0c2.7-29.2,4.6-59.4,7.3-88.6C232.2,130,271.5,130,310.8,130z M226.7,397.6
		c-23.7,0.9-44.8-21-44.8-44.8c0.9-24.7,20.1-43.8,44.8-43.8s44.8,19.2,44.8,45.7C271.5,377.5,250.5,398.5,226.7,397.6z
		 M310.8,338.3c-7.3,0-13.7,0-20.1,0c-0.9,0-1.8-0.9-1.8-1.8c-2.7-11-9.1-21-17.4-29.2c-10-10-22.8-15.5-36.5-17.4
		c-17.4-2.7-32,1.8-45.7,11c-12.8,8.2-20.1,20.1-24.7,33.8c-0.9,2.7-1.8,3.7-4.6,3.7s-4.6,0-8.2,0c0-1.8,0-2.7,0-4.6
		c0-22.8,0-46.6,0-69.4c0-12.8,10-23.7,23.7-24.7c44.8,0,88.6,0,133.3,0c0,0,0.9,0,1.8,0C310.8,272.5,310.8,304.5,310.8,338.3z
		 M604.9,397.6c-22.8,1.8-41.1-11.9-46.6-32.9c0-0.9,0-1.8,0-2.7c0-1.8,0.9-3.7,0-4.6c-2.7-11,1.8-20.1,8.2-28.3
		c8.2-10,19.2-16.4,36.5-16.4c17.4,0,35.6,14.6,39.3,35.6C646.9,372,628.6,395.8,604.9,397.6z"/>
</g>
</svg>
