<?xml version="1.0" encoding="utf-8"?>
<!-- Generator: Adobe Illustrator 27.0.0, SVG Export Plug-In . SVG Version: 6.00 Build 0)  -->
<svg version="1.1" id="Слой_1" xmlns="http://www.w3.org/2000/svg" xmlns:xlink="http://www.w3.org/1999/xlink" x="0px" y="0px"
	 viewBox="0 0 900 804" style="enable-background:new 0 0 900 804;" xml:space="preserve">
<g>
	<path d="M418.9,164.5c0-3.5,0-6.8,0-10.1c0.1-5.9,3.7-9.8,9.6-10.1c3.7-0.1,7.4,0,11.3,0c0-17.8,0-35,0-52.7c-2.8,0-5.8,0-8.8,0
		c-7.9,0.1-12.5-5.2-12.3-12.2c0.4-13,0.1-26,0.1-39.1c0-7.4,4.1-11.5,11.5-11.5c13.3,0,26.6,0,39.9,0c6.7,0,11.3,4.2,11.5,10.8
		c0.1,13.7,0.1,27.5,0,41.2c-0.1,6.4-4.8,10.6-11.6,10.8c-3.1,0.1-6.1,0-9.3,0c0,17.7,0,34.8,0,52.1c5.9,1.4,12.6-1.7,17.6,3.1
		c5.1,4.8,3,11.3,3.7,17.6c76.9,0,153.6,0,230.9,0c0-3.5,0-7.1,0-10.5c0-5.5,3.5-9.5,9.1-9.5c14.4-0.1,28.9-0.3,43.3-0.1
		c6.4,0,9.8,3.8,9.8,10.2c0,14,0,28,0,42c0,5.8-2.8,9.6-8.6,9.9c-8.9,0.6-17.8,0.4-26.6,0.4c-6.2,0-12.5,0-18.5-0.6
		c-5.2-0.4-8.2-4.2-8.2-9.3c0-1.7,0-3.4,0-5.1c0-1.7,0-3.4,0-5.5c-58,0-116.1,0-174.8,0c24.5,17,42.6,38.9,56.2,64.7
		c13.4,25.6,21.5,52.9,23.5,81.7c4.8,0.4,9.3,0.3,13.4,1.3c5.4,1.3,7.8,5,7.8,10.5c0,13.6,0,27.2,0,40.8c0,6.4-4.5,10.8-10.9,10.8
		c-13.7,0-27.5,0-41.2,0c-6.4,0-10.8-4.4-10.8-10.8c0-13.3,0-26.6,0-39.9c0-7.6,4.2-11.9,11.9-12.2c2.7-0.1,5.4,0,8.9,0
		c-1-7.6-1.6-14.9-3.1-21.8c-5.5-24.6-14.6-47.7-29-68.5c-13.2-18.8-29-34.8-49.5-45.4c-10.3-5.4-21.2-9.3-33.4-10.5
		c0,3.3,0,6.2,0,9.1c-0.1,5.8-4,10.6-9.8,10.8c-14.6,0.3-29,0.4-43.6,0.1c-6.4-0.1-9.6-4.5-9.6-11c0-2.8,0-5.7,0-9.6
		c-7.5,2-14.6,3.4-21.1,5.8c-21.5,7.9-39.4,20.9-54.6,38.1c-19.1,21.2-31,46-36.8,73.7c-2,9.5-2.4,19.4-3.7,29.6c4,0,6.8,0,9.5,0
		c7.8,0,12.2,4.1,12.3,11.9c0.3,13.3,0.1,26.6,0,39.9c-0.1,6.9-4.5,11.2-11.5,11.2c-13.4,0-26.9,0-40.3,0c-6.9,0-10.9-4.1-10.9-11
		c0-13.3,0.4-26.6-0.1-39.9c-0.3-6.8,5-11.9,11.7-11.9c2.8,0,5.7,0,8.6,0c3.1-61.1,28.7-110.1,78.4-146.8c-57.8,0-114.9,0-172.7,0
		c0,3-0.3,5.9,0,8.8c0.6,6.2-3.4,11.9-11.5,11.9c-13,0-25.9,0.1-38.9,0c-8.4-0.1-12.5-4.7-12.5-13c0-12.2,0.1-24.3,0-36.5
		c-0.1-7.2,3.7-13.6,13-13.3c13.4,0.4,26.9,0.1,40.3,0.3c5.8,0.1,9.5,4.1,9.5,10.1c0,3.3,0,6.5,0,10.1
		C264.9,164.5,341.6,164.5,418.9,164.5z M167.2,165c-7.2,0-14,0-20.8,0c0,7.1,0,13.9,0,20.7c7.1,0,13.9,0,20.8,0
		C167.2,178.6,167.2,171.8,167.2,165z M754.2,164.9c-7.2,0-13.9,0-20.8,0c0,7.1,0,13.9,0,20.7c7.1,0,13.9,0,20.8,0
		C754.2,178.6,754.2,172,754.2,164.9z M439.2,70.2c7.4,0,14,0,20.9,0c0-6.9,0-13.7,0-20.9c-6.4,0-12.3-0.1-18.4,0.1
		c-0.8,0-2.4,1.8-2.5,2.8C439.1,58.2,439.2,64.1,439.2,70.2z M439.2,164.9c0,6.5-0.1,12.3,0.1,18.3c0,1,1.4,2.5,2.3,2.5
		c6.2,0.3,12.3,0.1,18.7,0.1c0-7.2,0-14.2,0-20.9C453.3,164.9,446.5,164.9,439.2,164.9z M303.1,375.4c0-7.4,0-14.2,0-20.9
		c-7.1,0-13.9,0-20.9,0c0,6.2-0.1,12.2,0.1,18.1c0,1,1.7,2.7,2.5,2.7C290.8,375.5,296.8,375.4,303.1,375.4z M596.8,354.3
		c0,6.2,0.1,12,0,17.7c-0.1,2.7,0.7,3.5,3.3,3.4c5.1-0.1,10.2,0.1,15.1-0.1c1,0,2.7-1.6,2.7-2.5c0.3-6.1,0.1-12.2,0.1-18.4
		C610.8,354.3,604,354.3,596.8,354.3z"/>
	<path d="M372.4,501.1c-0.6-2.3-1-4.1-1.6-5.9c-8.1-24.3-16.1-48.7-24.2-73c-1.6-4.5-1.3-8.5,1.7-12.6c28-40.2,55.9-80.5,83.8-120.9
		c2.8-4.1,5.5-8.2,8.2-12.2c5.9-8.6,14-8.4,19.8,0.3c15.3,22.4,30.9,44.6,46.3,66.8c15.1,21.9,30.3,43.9,45.6,65.8
		c3.1,4.4,3.3,8.5,1.7,13.3c-8.8,25.9-17.4,51.7-26.2,78.3c2.4,0,4.4,0,6.4,0c6.1,0,10.6,4.4,10.8,10.6c0.1,10.3,0.1,20.7,0,31
		c0,5.9-4.5,10.2-10.5,10.3c-10.8,0.1-10.8,0.1-10.8,10.9c0,34.3,0,68.5,0,102.8c0,8.8-3.4,12.5-12.2,12.5c-29.6,0-59.3,0-88.9-0.1
		c-10.6,0-21.2,0.3-31.7,0c-3.4-0.1-6.8-1.1-9.9-2.5c-2.8-1.4-3.5-4.7-3.5-7.9c0.1-36.4,0-72.8,0-109c0-6.4,0-6.2-6.5-6.5
		c-3.1-0.1-6.2,0-9.1-1c-4.1-1.4-5.7-5-5.7-9.3c0-10.2,0-20.4,0-30.6c0-6.9,4-10.9,10.9-10.9C368.6,501.1,370.3,501.1,372.4,501.1z
		 M440.1,315.2c-0.3-0.1-0.7-0.1-1-0.3c-2.5,3.7-5.1,7.2-7.5,10.9c-20.7,30-41.5,60-62.1,90.2c-1,1.4-1.6,4.1-1.1,5.7
		c8.4,25.3,16.8,50.7,25.2,76.2c0.8,2.5,2,3.4,4.8,3.4c34.5-0.1,69.1-0.1,103.6,0c2.7,0,3.8-0.8,4.7-3.4
		c6.9-21.2,13.4-42.7,21.4-63.7c4-10.6,3.8-18.3-3.4-28c-19.4-26-37.2-53.4-55.6-80.1c-2.4-3.5-5.1-7.1-8.4-11.5c0,21.7,0,42,0,62.3
		c16.4,8.5,22.8,19.4,20.2,35.2c-2,12.5-11.9,22.9-24.2,25.3c-12.3,2.4-25.6-3-32.4-13.3c-10.6-16-5.1-36.8,12-45.4
		c3-1.4,4-3.1,3.8-6.4c-0.3-15.3-0.1-30.6-0.1-45.9C440.1,322.7,440.1,318.9,440.1,315.2z M502.7,658.1c0.1-0.7,0.3-1.1,0.3-1.6
		c0-33.4,0-66.8,0.1-100.2c0-3-1.4-3.4-4-3.4c-33,0-65.8,0-98.8,0c-0.8,0-1.6,0.3-2.4,0.4c0,35,0,69.6,0,104.6
		C432.9,658.1,467.6,658.1,502.7,658.1z M523.3,521.5c-10.2,0-19.8,0-29.3,0c-37.7,0-75.2,0-112.8,0c-1.4,0-4.1,0.3-4.2,0.8
		c-0.4,2.8-0.7,5.9-0.1,8.8c0.1,0.7,3,1.3,4.7,1.3c45.9,0,91.6,0,137.4,0c1.4,0,2.7,0,4.5,0c0-1.8,0-3.3,0-4.5
		C523.3,526,523.3,524,523.3,521.5z M460.5,406.5c0-5.9-4.8-10.8-10.5-10.8c-5.5,0.1-10.8,5.5-10.6,10.9c0.3,5.7,5,10.3,10.6,10.3
		C456.2,417,460.5,412.7,460.5,406.5z"/>
</g>
</svg>
