<?xml version="1.0" encoding="utf-8"?>
<!-- Generator: Adobe Illustrator 27.0.0, SVG Export Plug-In . SVG Version: 6.00 Build 0)  -->
<svg version="1.1" id="Слой_1" xmlns="http://www.w3.org/2000/svg" xmlns:xlink="http://www.w3.org/1999/xlink" x="0px" y="0px"
	 viewBox="0 0 900 900" style="enable-background:new 0 0 900 900;" xml:space="preserve">
<g>
	<path d="M342.4,409.2c0-5.3,0.1-10.4-0.1-15.4c0-0.7-0.7-1.8-1.3-2c-8.3-3.6-12.5-9.9-12.3-18.9c0.2-8,4.5-13.7,11.6-17
		c1.6-0.8,1.9-1.6,2-3.2c0-4.4-0.1-8.8,0.5-13.1c1.1-6.8,5.6-10.7,12.1-12.1c14.4-3.2,25.4-15.2,26.8-30c1.3-13.6-4.2-23.9-14.9-32
		c-5.6-4.3-11.9-6.2-18.8-6.3c-8,0-14.9,3.2-21,8.3c-4.5,3.7-7.8,8.3-10.3,13.5c-1.7,3.5-4.9,4.9-8,3.4c-2.9-1.3-4-4.8-2.4-8.1
		c7.3-15.2,19-25.4,36.1-28c13.1-2,25.1,1.6,35,10.5c11.9,10.8,17.5,24.3,15.8,40.3c-2.1,19.3-16,34.9-35,39.4
		c-3.4,0.8-4.3,1.9-4.4,5.3c0,3.1-0.2,6.2,0,9.3c0,0.8,0.7,2.1,1.4,2.4c7.7,3.2,11.5,9.1,12.1,17c0.5,7.1-3,14.8-11.8,18.8
		c-1.4,0.7-1.9,1.3-1.9,2.7c0.1,4.4,0.1,8.8,0,13.1c0,1.6,0.6,2.1,2,2.5c2.4,0.8,4.9,1.6,7.2,2.8c3.4,1.7,4.3,5.1,2.6,8
		c-1.6,2.9-4.8,3.8-8,2c-9.4-5.1-21-1.6-26.1,7.2c-6.7,11.4,0.8,26.4,13.8,28.5c11.6,1.8,21.3-7.7,22-16.7c0.4-5.6,5.3-7.9,9.3-4.6
		c1.2,0.9,2,2.9,2,4.5c-0.1,6.1-2.4,11.6-6.1,16.4c-4.7,6.1-10.9,9.9-18.5,11.6c0,5.6,0,11.1,0,17c3.8,0,7.5,0,11.3,0
		c5.4,0,10.8-0.1,16.2,0c8.5,0.2,15.2,3.7,19.5,11.1c11.1,19.1,22.2,38.3,33.4,57.5c4.7,8.2,4.4,16-0.4,24.1
		c-9.1,15.3-17.9,30.9-26.9,46.3c-2.5,4.4-5,8.8-7.8,12.9c-4,5.8-10,8.6-17,8.7c-22.1,0.2-44.1,0.1-66.1,0.1
		c-9.5,0-16.6-3.8-21.4-12.3c-10.9-19.1-22.1-38.1-33-57.2c-4.1-7.2-4.1-14.5,0-21.7c11-19.1,22.1-38.2,33.1-57.4
		c4.6-8.1,11.5-12.1,20.7-12.1c8.8,0,17.6,0,26.8,0c0-5.5,0.1-10.7-0.1-16c0-0.5-1.2-1.3-1.9-1.4c-4.6-1.3-8.6-3.5-12.3-6.5
		c-11.8-9.7-14.1-29-4.8-41.2c4.5-6,10.3-10,17.5-11.8C341.4,409.6,341.8,409.4,342.4,409.2z M348.2,498.3c-10.9,0-21.7,0.1-32.6,0
		c-5-0.1-8.3,1.9-10.8,6.2c-10.9,19-21.9,38-32.9,56.9c-2.2,3.8-2.2,7.4-0.1,11.1c11.1,19.2,22.2,38.4,33.3,57.6
		c2.1,3.7,5.3,5.6,9.7,5.6c22.3,0,44.6,0,67,0c4.3,0,7.4-1.9,9.5-5.6c11.1-19.2,22.2-38.4,33.4-57.5c2.4-4,2.3-7.7,0-11.5
		c-11.1-19.1-22.2-38.3-33.4-57.4c-2-3.5-5.1-5.4-9.3-5.4C370.6,498.3,359.4,498.3,348.2,498.3z M340.3,373.6c0,4.3,3.5,7.8,7.7,7.9
		c4.3,0.1,8-3.6,8-7.9c0-4.4-3.5-7.7-8-7.8C343.6,365.8,340.3,369.1,340.3,373.6z"/>
	<path d="M569.4,469.8c0,5.6,0,11.1,0,17c4.4,0,8.7-0.1,13.1,0c6.3,0.1,12.6-0.1,18.9,0.6c6.2,0.6,11.1,4,14.4,9.4
		c3.7,6.1,7.2,12.3,10.7,18.4c1.9,3.4,1.3,6.9-1.7,8.5c-3.2,1.8-6.3,0.8-8.3-2.8c-3.4-5.9-6.7-11.9-10.3-17.7
		c-1.9-3.2-4.8-4.8-8.6-4.8c-22.7,0-45.3,0-68,0c-4.2,0-7.1,2.3-9.1,5.7c-7.6,13.1-15.1,26.2-22.7,39.3c-3.5,6-6.9,12-10.4,18
		c-2.2,3.7-2.4,7.3-0.3,11c8.2,14.1,16.3,28.1,24.4,42.1c2.9,5.1,6,10.1,8.8,15.2c2.3,4.1,5.6,6.1,10.4,6.1
		c22.2-0.1,44.3-0.1,66.5,0c4.3,0,7.4-1.9,9.5-5.6c9.7-16.8,19.4-33.5,29-50.3c1.6-2.8,3.3-5.6,4.9-8.5c1.9-3.4,1.4-6.7-0.5-9.9
		c-3.2-5.4-6.3-10.8-9.4-16.2c-1.9-3.2-0.9-6.7,2-8.4c2.9-1.7,6.1-0.6,8,2.7c2.9,5,5.6,10,8.7,15c5.1,8.4,4.9,16.5-0.1,25
		c-11.1,19-22,38-33,56.9c-4,7-10.4,10.6-18.2,10.7c-23,0.3-46,0.3-68.9,0c-8.3-0.1-14.5-4.5-18.7-11.7
		c-11.2-19.5-22.6-38.8-33.6-58.4c-3.8-6.7-3.8-13.8,0.1-20.6c11-19.2,22.2-38.3,33.2-57.6c4.7-8.3,11.6-12.4,21.1-12.4
		c8.8,0,17.5,0,26.4,0c0-5.7,0-11.4,0-16.9c-12.2-3.3-20.4-10.5-23.8-22.9c-4-14.4,4.6-31,18.8-36c5.1-1.8,5.1-1.8,5.1-7.2
		c0-3.2-0.1-6.4,0-9.6c0-1.3-0.4-1.9-1.7-2.5c-7.6-3.5-11.9-9.6-11.8-17.9c0-8.2,4-14.3,11.6-17.8c1.6-0.8,1.9-1.5,1.9-3.1
		c0-4,0-8.1,0.5-12c0.8-6.9,5.4-11.7,12-13.2c14.6-3.4,23.2-12.7,26.6-27c0.8-3.4,0.3-7.1,0.3-10.7c-0.1-2.8,2.6-6.1,5.7-6.3
		c2.6-0.3,5.6,2.4,5.9,5.1c2.9,24.3-13.9,45.7-35.5,50c-2.6,0.5-3.9,2.3-3.9,5.1c0,3.3-0.1,6.6,0.1,9.9c0,0.8,0.8,1.9,1.4,2.1
		c12.1,4.7,16.7,20.6,6.8,31.3c-1.8,1.9-4.4,3.3-6.8,4.6c-1.1,0.6-1.6,1.2-1.6,2.4c0.1,4.5,0.1,9.1,0,13.6c0,1.4,0.6,1.9,1.8,2.2
		c15.3,4,25.1,18.1,22.9,33.9C592.3,456.9,582.7,467,569.4,469.8z M563.6,420.5c-10.3-0.5-18.7,8.7-19.1,18.3
		c-0.4,10.5,7.9,20,19,20c10.8,0,19.2-7.7,19.4-19.1C583,428.9,574.5,420.3,563.6,420.5z M563.8,365.9c-4.6,0-8,3.2-8.1,7.7
		c0,4.3,3.6,8,7.9,7.9c4.2,0,7.7-3.6,7.7-7.8C571.4,369.2,568.2,365.9,563.8,365.9z"/>
	<path d="M563.8,523.6c6,0,12-0.1,17.9,0c4.5,0.1,8.2,2,10.4,5.8c6.1,10.3,12.1,20.6,17.9,31c2.4,4.4,2.4,8.9-0.1,13.4
		c-5.8,10.1-11.5,20.3-17.4,30.3c-2.5,4.2-6.5,6.4-11.5,6.4c-11.6,0-23.2,0-34.9,0c-4.9,0-8.8-2.2-11.3-6.3
		c-6-10-11.8-20.2-17.6-30.4c-2.6-4.5-2.5-9.2,0.1-13.8c5.6-9.8,11.3-19.5,16.9-29.4c2.7-4.7,6.7-7.2,12.4-7.1
		C552.3,523.7,558.1,523.6,563.8,523.6L563.8,523.6z M563.5,599C563.5,598.9,563.5,598.9,563.5,599c5.5,0,11-0.1,16.4,0
		c1.8,0,2.7-0.7,3.5-2.1c5.3-9.3,10.7-18.5,16-27.7c0.8-1.4,0.8-2.6,0-4.1c-5.4-9.2-10.7-18.4-15.9-27.7c-0.9-1.7-2.1-2.4-4-2.4
		c-10.6,0-21.2-0.1-31.8,0.1c-1.3,0-2.9,1-3.5,2.1c-5.6,9.3-11,18.7-16.4,28.1c-0.5,0.9-0.6,2.7-0.1,3.6
		c5.3,9.4,10.9,18.8,16.3,28.2c0.9,1.6,2,1.9,3.6,1.9C552.8,598.9,558.1,599,563.5,599z"/>
	<path d="M564,247.7c11.9,0.3,22.1,4.9,30.8,12.7c2.1,1.9,2.4,6,0.7,8.3c-1.9,2.5-5.2,3-8,1.1c-2.2-1.5-4.2-3.4-6.3-4.9
		c-11.3-8.3-26.9-6.9-37,1.5c-5,4.1-8.9,8.8-11.7,14.5c-1.9,4-4.9,5.1-8.3,3.4c-2.4-1.2-3.8-5-2-8.5c5.4-10.9,13.1-19.1,24.3-24.2
		C550.9,249.5,559.6,247.5,564,247.7z"/>
	<path d="M348.3,523.6c5.8,0,11.6,0.1,17.4,0c5.2-0.1,9,2.3,11.5,6.7c5.8,9.9,11.5,19.8,17.2,29.7c2.5,4.5,2.8,9,0.2,13.6
		c-6.1,10.6-12.2,21.3-18.6,31.8c-2.1,3.5-5.7,5.1-9.9,5.1c-12,0.1-23.9,0.1-35.9,0c-5.5,0-11.3-4.5-12.7-9.8
		c-0.8-2.9,0.5-5.8,3.3-7c2.6-1.2,5.5-0.3,7.1,2.6c1.1,2,2.4,2.7,4.8,2.7c10.5-0.2,21.1-0.1,31.6,0c1.5,0,2.7-0.3,3.5-1.8
		c5.5-9.5,11-19,16.3-28.5c0.5-0.9,0.3-2.8-0.3-3.9c-3.8-6.8-7.7-13.5-11.6-20.2c-1.5-2.6-2.9-5.3-4.5-7.7c-0.7-1-2.3-1.9-3.5-1.9
		c-10.6-0.2-21.2,0-31.8-0.1c-1.9,0-3.1,0.6-4,2.3c-5.3,9.3-10.7,18.6-16.1,27.8c-0.8,1.5-0.8,2.7,0,4.2c1.1,2.1,2.3,4.3,2.8,6.6
		c0.5,2.5-1.2,4.4-3.5,5.2c-2.2,0.8-4.9,0.7-6.2-1.3c-2-3-3.5-6.4-5-9.8c-1.3-3.1-0.4-6.3,1.2-9.2c5.8-10.2,11.6-20.3,17.6-30.4
		c2.6-4.5,6.6-6.7,11.9-6.7C336.9,523.6,342.6,523.6,348.3,523.6L348.3,523.6z"/>
</g>
</svg>
